<?xml version="1.0" encoding="utf-8"?>
<!-- Generator: Adobe Illustrator 28.0.0, SVG Export Plug-In . SVG Version: 6.00 Build 0)  -->
<svg version="1.1" baseProfile="tiny" id="Layer_1" xmlns="http://www.w3.org/2000/svg" xmlns:xlink="http://www.w3.org/1999/xlink"
	 x="0px" y="0px" viewBox="0 0 595.28 841.89" overflow="visible" xml:space="preserve">
<polygon fill="#CCCCCC" points="311.95,486.28 242.12,556.11 311.95,625.94 "/>
<g>
	<path fill="#CCCCCC" d="M297.7,566.59v-25.67c27.65,0,53.54-4.74,72.9-13.34c20.84-9.26,20.58-19.03,20.58-21.13
		s0.26-11.87-20.58-21.13c-19.36-8.6-45.25-13.34-72.9-13.34c-27.65,0-53.54,4.74-72.9,13.34c-18.54,8.24-36.38,21.23-40.1,25.48
		c-0.38,0.43-1.84,1.01-1.87-0.79l-0.03-3.56c0-41.33,59.56-60.15,114.9-60.15c55.34,0,124.91,18.82,124.91,60.15
		S353.04,566.59,297.7,566.59z"/>
</g>
<circle fill="#CCCCCC" cx="297.64" cy="326.62" r="63.16"/>
</svg>
